<mxfile host="drawio-plugin" modified="2024-01-02T20:56:31.763Z" agent="5.0 (Windows NT 6.2; Win64; x64) AppleWebKit/537.36 (KHTML, like Gecko) Chrome/104.0.5112.102 Safari/537.36" etag="LRhD3DCR--78itU64xRh" version="20.5.3" type="embed"><diagram id="Ll_qivSYwSle0fyhaXuh" name="Сторінка-1"><mxGraphModel dx="2600" dy="878" grid="1" gridSize="10" guides="1" tooltips="1" connect="1" arrows="1" fold="1" page="0" pageScale="1" pageWidth="827" pageHeight="1169" background="none" math="0" shadow="0"><root><mxCell id="0"/><mxCell id="1" parent="0"/><mxCell id="lvYG5XQPU5QrbWgYbbsi-43" style="edgeStyle=orthogonalEdgeStyle;rounded=0;orthogonalLoop=1;jettySize=auto;html=1;entryX=0.5;entryY=0;entryDx=0;entryDy=0;" parent="1" source="lvYG5XQPU5QrbWgYbbsi-1" target="lvYG5XQPU5QrbWgYbbsi-3" edge="1"><mxGeometry relative="1" as="geometry"/></mxCell><mxCell id="lvYG5XQPU5QrbWgYbbsi-1" value="Початок&amp;nbsp;" style="ellipse;whiteSpace=wrap;html=1;" parent="1" vertex="1"><mxGeometry x="40" y="50" width="150" height="80" as="geometry"/></mxCell><mxCell id="lvYG5XQPU5QrbWgYbbsi-44" style="edgeStyle=orthogonalEdgeStyle;rounded=0;orthogonalLoop=1;jettySize=auto;html=1;entryX=0.5;entryY=0;entryDx=0;entryDy=0;" parent="1" source="lvYG5XQPU5QrbWgYbbsi-3" target="lvYG5XQPU5QrbWgYbbsi-4" edge="1"><mxGeometry relative="1" as="geometry"/></mxCell><mxCell id="lvYG5XQPU5QrbWgYbbsi-3" value="Введення:&lt;br&gt;Vertex source" style="shape=parallelogram;perimeter=parallelogramPerimeter;whiteSpace=wrap;html=1;fixedSize=1;" parent="1" vertex="1"><mxGeometry y="160" width="255" height="80" as="geometry"/></mxCell><mxCell id="lvYG5XQPU5QrbWgYbbsi-41" style="edgeStyle=orthogonalEdgeStyle;rounded=0;orthogonalLoop=1;jettySize=auto;html=1;entryX=0.5;entryY=0;entryDx=0;entryDy=0;" parent="1" source="lvYG5XQPU5QrbWgYbbsi-4" target="lvYG5XQPU5QrbWgYbbsi-7" edge="1"><mxGeometry relative="1" as="geometry"/></mxCell><mxCell id="lvYG5XQPU5QrbWgYbbsi-4" value="source.distance = 0;&lt;br&gt;queue.add(source);" style="rounded=0;whiteSpace=wrap;html=1;" parent="1" vertex="1"><mxGeometry x="25" y="270" width="205" height="90" as="geometry"/></mxCell><mxCell id="lvYG5XQPU5QrbWgYbbsi-58" style="edgeStyle=orthogonalEdgeStyle;rounded=0;orthogonalLoop=1;jettySize=auto;html=1;entryX=0.5;entryY=0;entryDx=0;entryDy=0;" parent="1" source="lvYG5XQPU5QrbWgYbbsi-6" target="lvYG5XQPU5QrbWgYbbsi-9" edge="1"><mxGeometry relative="1" as="geometry"/></mxCell><mxCell id="lvYG5XQPU5QrbWgYbbsi-6" value="&lt;div style=&quot;font-family: &amp;quot;JetBrains Mono&amp;quot;, monospace;&quot;&gt;&lt;pre style=&quot;&quot;&gt;&lt;div style=&quot;font-family: &amp;quot;JetBrains Mono&amp;quot;, monospace;&quot;&gt;&lt;pre style=&quot;&quot;&gt;&lt;font style=&quot;&quot;&gt;Vertex current = queue.poll();&lt;/font&gt;&lt;/pre&gt;&lt;/div&gt;&lt;/pre&gt;&lt;/div&gt;" style="rounded=0;whiteSpace=wrap;html=1;labelBackgroundColor=default;fontColor=#FFFFFF;" parent="1" vertex="1"><mxGeometry x="-2.5" y="550" width="260" height="90" as="geometry"/></mxCell><mxCell id="lvYG5XQPU5QrbWgYbbsi-8" style="edgeStyle=orthogonalEdgeStyle;rounded=0;orthogonalLoop=1;jettySize=auto;html=1;entryX=0.5;entryY=0;entryDx=0;entryDy=0;" parent="1" source="lvYG5XQPU5QrbWgYbbsi-7" target="lvYG5XQPU5QrbWgYbbsi-6" edge="1"><mxGeometry relative="1" as="geometry"/></mxCell><mxCell id="lvYG5XQPU5QrbWgYbbsi-47" style="edgeStyle=orthogonalEdgeStyle;rounded=0;orthogonalLoop=1;jettySize=auto;html=1;exitX=0;exitY=0.25;exitDx=0;exitDy=0;entryX=0.5;entryY=0;entryDx=0;entryDy=0;" parent="1" source="lvYG5XQPU5QrbWgYbbsi-7" target="41" edge="1"><mxGeometry relative="1" as="geometry"><Array as="points"><mxPoint x="-80" y="432"/><mxPoint x="-80" y="350"/><mxPoint x="-365" y="350"/></Array><mxPoint x="-200" y="420" as="targetPoint"/></mxGeometry></mxCell><mxCell id="lvYG5XQPU5QrbWgYbbsi-7" value="!queue.isEmpty()" style="shape=hexagon;perimeter=hexagonPerimeter2;whiteSpace=wrap;html=1;fixedSize=1;" parent="1" vertex="1"><mxGeometry x="42.5" y="410" width="170" height="80" as="geometry"/></mxCell><mxCell id="lvYG5XQPU5QrbWgYbbsi-38" style="edgeStyle=orthogonalEdgeStyle;rounded=0;orthogonalLoop=1;jettySize=auto;html=1;entryX=0.5;entryY=0;entryDx=0;entryDy=0;" parent="1" source="lvYG5XQPU5QrbWgYbbsi-9" target="lvYG5XQPU5QrbWgYbbsi-37" edge="1"><mxGeometry relative="1" as="geometry"/></mxCell><mxCell id="lvYG5XQPU5QrbWgYbbsi-9" value="&lt;div style=&quot;font-family: &amp;quot;JetBrains Mono&amp;quot;, monospace;&quot;&gt;&lt;pre style=&quot;&quot;&gt;&lt;span style=&quot;&quot;&gt;for (Edge neighbour : current.getNeighbours())&lt;/span&gt;&lt;/pre&gt;&lt;/div&gt;" style="shape=hexagon;perimeter=hexagonPerimeter2;whiteSpace=wrap;html=1;fixedSize=1;labelBackgroundColor=default;fontColor=#FFFFFF;" parent="1" vertex="1"><mxGeometry x="-25.620000000000005" y="680" width="341.25" height="120" as="geometry"/></mxCell><mxCell id="lvYG5XQPU5QrbWgYbbsi-18" style="edgeStyle=orthogonalEdgeStyle;rounded=0;orthogonalLoop=1;jettySize=auto;html=1;entryX=0;entryY=0.5;entryDx=0;entryDy=0;" parent="1" source="lvYG5XQPU5QrbWgYbbsi-10" target="lvYG5XQPU5QrbWgYbbsi-11" edge="1"><mxGeometry relative="1" as="geometry"/></mxCell><mxCell id="lvYG5XQPU5QrbWgYbbsi-10" value="&lt;div style=&quot;font-family: &amp;quot;JetBrains Mono&amp;quot;, monospace;&quot;&gt;&lt;pre style=&quot;&quot;&gt;&lt;span style=&quot;&quot;&gt;Vertex end = neighbour.getEnd();&lt;br&gt;int weight = neighbour.getWeight();&lt;/span&gt;&lt;/pre&gt;&lt;/div&gt;" style="whiteSpace=wrap;html=1;labelBackgroundColor=default;fontColor=#FFFFFF;" parent="1" vertex="1"><mxGeometry x="560" y="700" width="250" height="100" as="geometry"/></mxCell><mxCell id="lvYG5XQPU5QrbWgYbbsi-19" style="edgeStyle=orthogonalEdgeStyle;rounded=0;orthogonalLoop=1;jettySize=auto;html=1;exitX=0.5;exitY=1;exitDx=0;exitDy=0;entryX=0.625;entryY=1;entryDx=0;entryDy=0;" parent="1" source="lvYG5XQPU5QrbWgYbbsi-11" target="lvYG5XQPU5QrbWgYbbsi-9" edge="1"><mxGeometry relative="1" as="geometry"><mxPoint x="160" y="830" as="targetPoint"/><Array as="points"><mxPoint x="1010" y="850"/><mxPoint x="188" y="850"/></Array></mxGeometry></mxCell><mxCell id="lvYG5XQPU5QrbWgYbbsi-24" style="edgeStyle=orthogonalEdgeStyle;rounded=0;orthogonalLoop=1;jettySize=auto;html=1;" parent="1" source="lvYG5XQPU5QrbWgYbbsi-11" target="lvYG5XQPU5QrbWgYbbsi-12" edge="1"><mxGeometry relative="1" as="geometry"/></mxCell><mxCell id="lvYG5XQPU5QrbWgYbbsi-11" value="&lt;div style=&quot;font-family: &amp;quot;JetBrains Mono&amp;quot;, monospace;&quot;&gt;&lt;pre style=&quot;&quot;&gt;&lt;span style=&quot;&quot;&gt;&lt;font&gt;!end.isVisited()&lt;/font&gt;&lt;/span&gt;&lt;/pre&gt;&lt;/div&gt;" style="rhombus;whiteSpace=wrap;html=1;labelBackgroundColor=default;fontColor=#FFFFFF;" parent="1" vertex="1"><mxGeometry x="890" y="680" width="242.5" height="140" as="geometry"/></mxCell><mxCell id="lvYG5XQPU5QrbWgYbbsi-20" style="edgeStyle=orthogonalEdgeStyle;rounded=0;orthogonalLoop=1;jettySize=auto;html=1;endArrow=none;endFill=0;" parent="1" source="lvYG5XQPU5QrbWgYbbsi-12" edge="1"><mxGeometry relative="1" as="geometry"><mxPoint x="1160" y="850" as="targetPoint"/><Array as="points"><mxPoint x="1165" y="575"/><mxPoint x="1165" y="850"/></Array></mxGeometry></mxCell><mxCell id="lvYG5XQPU5QrbWgYbbsi-25" style="edgeStyle=orthogonalEdgeStyle;rounded=0;orthogonalLoop=1;jettySize=auto;html=1;entryX=0.5;entryY=1;entryDx=0;entryDy=0;" parent="1" source="lvYG5XQPU5QrbWgYbbsi-12" target="lvYG5XQPU5QrbWgYbbsi-13" edge="1"><mxGeometry relative="1" as="geometry"/></mxCell><mxCell id="lvYG5XQPU5QrbWgYbbsi-12" value="&lt;div style=&quot;font-family: &amp;quot;JetBrains Mono&amp;quot;, monospace;&quot;&gt;&lt;pre style=&quot;&quot;&gt;&lt;div style=&quot;font-family: &amp;quot;JetBrains Mono&amp;quot;, monospace;&quot;&gt;&lt;pre style=&quot;&quot;&gt;&lt;span style=&quot;&quot;&gt;current.getDistance() + weight &lt;/span&gt;&lt;/pre&gt;&lt;pre style=&quot;&quot;&gt;&lt;span style=&quot;&quot;&gt;&amp;lt; end.getDistance()&lt;/span&gt;&lt;/pre&gt;&lt;/div&gt;&lt;/pre&gt;&lt;/div&gt;" style="rhombus;whiteSpace=wrap;html=1;labelBackgroundColor=default;fontColor=#FFFFFF;" parent="1" vertex="1"><mxGeometry x="877.18" y="495" width="268.13" height="160" as="geometry"/></mxCell><mxCell id="lvYG5XQPU5QrbWgYbbsi-26" style="edgeStyle=orthogonalEdgeStyle;rounded=0;orthogonalLoop=1;jettySize=auto;html=1;entryX=0.5;entryY=1;entryDx=0;entryDy=0;" parent="1" source="lvYG5XQPU5QrbWgYbbsi-13" target="lvYG5XQPU5QrbWgYbbsi-14" edge="1"><mxGeometry relative="1" as="geometry"/></mxCell><mxCell id="lvYG5XQPU5QrbWgYbbsi-13" value="&lt;div style=&quot;font-family: &amp;quot;JetBrains Mono&amp;quot;, monospace;&quot;&gt;&lt;pre style=&quot;&quot;&gt;end.setDistance(current.getDistance() + weight);&lt;/pre&gt;&lt;/div&gt;" style="rounded=0;whiteSpace=wrap;html=1;labelBackgroundColor=none;" parent="1" vertex="1"><mxGeometry x="851.2400000000001" y="340" width="320" height="120" as="geometry"/></mxCell><mxCell id="lvYG5XQPU5QrbWgYbbsi-34" style="edgeStyle=orthogonalEdgeStyle;rounded=0;orthogonalLoop=1;jettySize=auto;html=1;entryX=0.5;entryY=0;entryDx=0;entryDy=0;" parent="1" source="lvYG5XQPU5QrbWgYbbsi-14" target="lvYG5XQPU5QrbWgYbbsi-15" edge="1"><mxGeometry relative="1" as="geometry"><mxPoint x="520" y="245" as="targetPoint"/></mxGeometry></mxCell><mxCell id="lvYG5XQPU5QrbWgYbbsi-55" style="edgeStyle=orthogonalEdgeStyle;rounded=0;orthogonalLoop=1;jettySize=auto;html=1;entryX=0.5;entryY=0;entryDx=0;entryDy=0;" parent="1" source="lvYG5XQPU5QrbWgYbbsi-14" target="lvYG5XQPU5QrbWgYbbsi-16" edge="1"><mxGeometry relative="1" as="geometry"><mxPoint x="1011.2400000000002" y="80" as="targetPoint"/><Array as="points"><mxPoint x="1011" y="110"/><mxPoint x="710" y="110"/></Array></mxGeometry></mxCell><mxCell id="lvYG5XQPU5QrbWgYbbsi-14" value="&lt;div style=&quot;font-family: &amp;quot;JetBrains Mono&amp;quot;, monospace;&quot;&gt;&lt;pre style=&quot;&quot;&gt;&lt;font color=&quot;#ffffff&quot;&gt;queue.contains(end)&lt;/font&gt;&lt;/pre&gt;&lt;/div&gt;" style="rhombus;whiteSpace=wrap;html=1;labelBackgroundColor=none;" parent="1" vertex="1"><mxGeometry x="919.2400000000001" y="180" width="184" height="130" as="geometry"/></mxCell><mxCell id="lvYG5XQPU5QrbWgYbbsi-33" style="edgeStyle=orthogonalEdgeStyle;rounded=0;orthogonalLoop=1;jettySize=auto;html=1;" parent="1" source="lvYG5XQPU5QrbWgYbbsi-15" edge="1"><mxGeometry relative="1" as="geometry"><mxPoint x="710" y="480" as="targetPoint"/><Array as="points"><mxPoint x="711" y="380"/></Array></mxGeometry></mxCell><mxCell id="lvYG5XQPU5QrbWgYbbsi-15" value="&lt;div style=&quot;font-family: &amp;quot;JetBrains Mono&amp;quot;, monospace;&quot;&gt;&lt;pre style=&quot;&quot;&gt;&lt;span style=&quot;&quot;&gt;queue.remove(end);&lt;/span&gt;&lt;span style=&quot;&quot;&gt;&lt;br&gt;&lt;/span&gt;&lt;/pre&gt;&lt;/div&gt;" style="rounded=0;whiteSpace=wrap;html=1;labelBackgroundColor=default;fontColor=#FFFFFF;" parent="1" vertex="1"><mxGeometry x="390" y="340" width="193.75" height="80" as="geometry"/></mxCell><mxCell id="lvYG5XQPU5QrbWgYbbsi-32" style="edgeStyle=orthogonalEdgeStyle;rounded=0;orthogonalLoop=1;jettySize=auto;html=1;entryX=1;entryY=0.5;entryDx=0;entryDy=0;" parent="1" source="lvYG5XQPU5QrbWgYbbsi-16" target="lvYG5XQPU5QrbWgYbbsi-7" edge="1"><mxGeometry relative="1" as="geometry"/></mxCell><mxCell id="lvYG5XQPU5QrbWgYbbsi-16" value="&lt;div style=&quot;font-family: &amp;quot;JetBrains Mono&amp;quot;, monospace;&quot;&gt;&lt;pre style=&quot;&quot;&gt;&lt;span style=&quot;&quot;&gt;queue.add(end);&lt;br&gt;end.setPredecessor(current);&lt;/span&gt;&lt;/pre&gt;&lt;/div&gt;" style="whiteSpace=wrap;html=1;labelBackgroundColor=default;fontColor=#FFFFFF;" parent="1" vertex="1"><mxGeometry x="610" y="480" width="200" height="80" as="geometry"/></mxCell><mxCell id="lvYG5XQPU5QrbWgYbbsi-17" style="edgeStyle=orthogonalEdgeStyle;rounded=0;orthogonalLoop=1;jettySize=auto;html=1;entryX=0.003;entryY=0.399;entryDx=0;entryDy=0;entryPerimeter=0;" parent="1" source="lvYG5XQPU5QrbWgYbbsi-9" target="lvYG5XQPU5QrbWgYbbsi-10" edge="1"><mxGeometry relative="1" as="geometry"/></mxCell><mxCell id="lvYG5XQPU5QrbWgYbbsi-23" value="" style="edgeStyle=none;orthogonalLoop=1;jettySize=auto;html=1;rounded=0;" parent="1" edge="1"><mxGeometry width="100" relative="1" as="geometry"><mxPoint x="1160" y="850" as="sourcePoint"/><mxPoint x="1010" y="850" as="targetPoint"/><Array as="points"/></mxGeometry></mxCell><mxCell id="lvYG5XQPU5QrbWgYbbsi-39" style="edgeStyle=orthogonalEdgeStyle;rounded=0;orthogonalLoop=1;jettySize=auto;html=1;entryX=0;entryY=0.5;entryDx=0;entryDy=0;" parent="1" source="lvYG5XQPU5QrbWgYbbsi-37" target="lvYG5XQPU5QrbWgYbbsi-7" edge="1"><mxGeometry relative="1" as="geometry"><mxPoint x="-130" y="450" as="targetPoint"/><Array as="points"><mxPoint x="-130" y="925"/><mxPoint x="-130" y="450"/></Array></mxGeometry></mxCell><mxCell id="lvYG5XQPU5QrbWgYbbsi-37" value="&lt;div style=&quot;font-family: &amp;quot;JetBrains Mono&amp;quot;, monospace;&quot;&gt;&lt;pre style=&quot;&quot;&gt;&lt;font style=&quot;&quot;&gt;current.setVisited(true);&lt;/font&gt;&lt;/pre&gt;&lt;/div&gt;" style="whiteSpace=wrap;html=1;labelBackgroundColor=default;fontColor=#FFFFFF;" parent="1" vertex="1"><mxGeometry x="20" y="870" width="250" height="110" as="geometry"/></mxCell><mxCell id="lvYG5XQPU5QrbWgYbbsi-48" value="&lt;font style=&quot;font-size: 15px;&quot;&gt;Ні&lt;/font&gt;" style="text;html=1;align=center;verticalAlign=middle;resizable=0;points=[];autosize=1;strokeColor=none;fillColor=none;" parent="1" vertex="1"><mxGeometry x="95" y="490" width="40" height="30" as="geometry"/></mxCell><mxCell id="lvYG5XQPU5QrbWgYbbsi-49" value="&lt;font style=&quot;font-size: 15px;&quot;&gt;Ні&lt;/font&gt;" style="text;html=1;align=center;verticalAlign=middle;resizable=0;points=[];autosize=1;strokeColor=none;fillColor=none;" parent="1" vertex="1"><mxGeometry x="1005" y="810" width="40" height="30" as="geometry"/></mxCell><mxCell id="lvYG5XQPU5QrbWgYbbsi-50" value="&lt;font style=&quot;font-size: 15px;&quot;&gt;Ні&lt;/font&gt;" style="text;html=1;align=center;verticalAlign=middle;resizable=0;points=[];autosize=1;strokeColor=none;fillColor=none;" parent="1" vertex="1"><mxGeometry x="1127.5" y="540" width="40" height="30" as="geometry"/></mxCell><mxCell id="lvYG5XQPU5QrbWgYbbsi-51" value="&lt;font style=&quot;font-size: 15px;&quot;&gt;так&lt;/font&gt;" style="text;html=1;align=center;verticalAlign=middle;resizable=0;points=[];autosize=1;strokeColor=none;fillColor=none;" parent="1" vertex="1"><mxGeometry x="1020" y="655" width="50" height="30" as="geometry"/></mxCell><mxCell id="lvYG5XQPU5QrbWgYbbsi-52" value="&lt;font style=&quot;font-size: 15px;&quot;&gt;так&lt;/font&gt;" style="text;html=1;align=center;verticalAlign=middle;resizable=0;points=[];autosize=1;strokeColor=none;fillColor=none;" parent="1" vertex="1"><mxGeometry x="1020" y="465" width="50" height="30" as="geometry"/></mxCell><mxCell id="lvYG5XQPU5QrbWgYbbsi-53" value="&lt;font style=&quot;font-size: 15px;&quot;&gt;так&lt;/font&gt;" style="text;html=1;align=center;verticalAlign=middle;resizable=0;points=[];autosize=1;strokeColor=none;fillColor=none;" parent="1" vertex="1"><mxGeometry x="900" y="260" width="50" height="30" as="geometry"/></mxCell><mxCell id="lvYG5XQPU5QrbWgYbbsi-56" value="&lt;font style=&quot;font-size: 15px;&quot;&gt;Ні&lt;/font&gt;" style="text;html=1;align=center;verticalAlign=middle;resizable=0;points=[];autosize=1;strokeColor=none;fillColor=none;" parent="1" vertex="1"><mxGeometry x="980" y="160" width="40" height="30" as="geometry"/></mxCell><mxCell id="lvYG5XQPU5QrbWgYbbsi-57" value="&lt;font style=&quot;font-size: 15px;&quot;&gt;так&lt;/font&gt;" style="text;html=1;align=center;verticalAlign=middle;resizable=0;points=[];autosize=1;strokeColor=none;fillColor=none;" parent="1" vertex="1"><mxGeometry x="10" y="400" width="50" height="30" as="geometry"/></mxCell><mxCell id="40" style="edgeStyle=orthogonalEdgeStyle;rounded=0;orthogonalLoop=1;jettySize=auto;html=1;entryX=0.5;entryY=0;entryDx=0;entryDy=0;fontColor=#FFFFFF;" edge="1" parent="1" source="41" target="45"><mxGeometry relative="1" as="geometry"/></mxCell><mxCell id="41" value="showPath(Vertex end);" style="ellipse;whiteSpace=wrap;html=1;labelBackgroundColor=none;fontColor=#FFFFFF;fontFamily=Verdana;" vertex="1" parent="1"><mxGeometry x="-450" y="390" width="170" height="80" as="geometry"/></mxCell><mxCell id="42" value="Кінець" style="ellipse;whiteSpace=wrap;html=1;labelBackgroundColor=none;fontColor=#FFFFFF;fontFamily=Verdana;" vertex="1" parent="1"><mxGeometry x="-910" y="1140" width="160" height="100" as="geometry"/></mxCell><mxCell id="43" style="edgeStyle=orthogonalEdgeStyle;rounded=0;orthogonalLoop=1;jettySize=auto;html=1;entryX=0.5;entryY=0;entryDx=0;entryDy=0;fontColor=#FFFFFF;" edge="1" parent="1" source="45" target="47"><mxGeometry relative="1" as="geometry"/></mxCell><mxCell id="44" style="edgeStyle=orthogonalEdgeStyle;rounded=0;orthogonalLoop=1;jettySize=auto;html=1;entryX=0.5;entryY=0;entryDx=0;entryDy=0;exitX=0;exitY=0.5;exitDx=0;exitDy=0;fontColor=#FFFFFF;" edge="1" parent="1" source="47" target="51"><mxGeometry relative="1" as="geometry"/></mxCell><mxCell id="45" value="&lt;div style=&quot;&quot;&gt;&lt;div&gt;List&amp;lt;Vertex&amp;gt; vertexList = new ArrayList&amp;lt;&amp;gt;()&lt;span style=&quot;&quot;&gt;;&lt;/span&gt;&lt;/div&gt;&lt;/div&gt;" style="rounded=0;whiteSpace=wrap;html=1;labelBackgroundColor=none;fontColor=#FFFFFF;fontFamily=Verdana;" vertex="1" parent="1"><mxGeometry x="-520" y="525" width="270" height="90" as="geometry"/></mxCell><mxCell id="46" style="edgeStyle=orthogonalEdgeStyle;rounded=0;orthogonalLoop=1;jettySize=auto;html=1;entryX=0.5;entryY=0;entryDx=0;entryDy=0;fontColor=#FFFFFF;" edge="1" parent="1" source="47" target="49"><mxGeometry relative="1" as="geometry"/></mxCell><mxCell id="47" value="&lt;div style=&quot;&quot;&gt;&lt;div&gt;while (end != &lt;span style=&quot;&quot;&gt;null&lt;/span&gt;)&lt;/div&gt;&lt;/div&gt;" style="shape=hexagon;perimeter=hexagonPerimeter2;whiteSpace=wrap;html=1;fixedSize=1;labelBackgroundColor=none;fontColor=#FFFFFF;fontFamily=Verdana;" vertex="1" parent="1"><mxGeometry x="-460" y="650" width="150" height="90" as="geometry"/></mxCell><mxCell id="48" style="edgeStyle=orthogonalEdgeStyle;rounded=0;orthogonalLoop=1;jettySize=auto;html=1;entryX=1;entryY=0.5;entryDx=0;entryDy=0;fontColor=#FFFFFF;" edge="1" parent="1" source="49" target="47"><mxGeometry relative="1" as="geometry"><Array as="points"><mxPoint x="-200" y="835"/><mxPoint x="-200" y="695"/></Array></mxGeometry></mxCell><mxCell id="49" value="&lt;div style=&quot;&quot;&gt;&lt;div&gt;&lt;div style=&quot;&quot;&gt;&lt;div&gt;vertexList.add(end);&lt;br&gt;end = end.getPredecessor()&lt;span style=&quot;&quot;&gt;;&lt;/span&gt;&lt;/div&gt;&lt;/div&gt;&lt;/div&gt;&lt;/div&gt;" style="rounded=0;whiteSpace=wrap;html=1;labelBackgroundColor=none;fontColor=#FFFFFF;fontFamily=Verdana;" vertex="1" parent="1"><mxGeometry x="-520" y="790" width="270" height="90" as="geometry"/></mxCell><mxCell id="50" style="edgeStyle=orthogonalEdgeStyle;rounded=0;orthogonalLoop=1;jettySize=auto;html=1;entryX=0.5;entryY=0;entryDx=0;entryDy=0;fontColor=#FFFFFF;" edge="1" parent="1" source="51" target="54"><mxGeometry relative="1" as="geometry"/></mxCell><mxCell id="51" value="&lt;div style=&quot;&quot;&gt;&lt;div&gt;&lt;div style=&quot;&quot;&gt;&lt;div&gt;&lt;div style=&quot;&quot;&gt;&lt;div&gt;Collections.reverse(vertexList)&lt;span style=&quot;&quot;&gt;;&lt;br&gt;&lt;/span&gt;&lt;/div&gt;&lt;div&gt;&lt;div style=&quot;&quot;&gt;&lt;div&gt;String result = &quot;&quot;&lt;span style=&quot;&quot;&gt;;&lt;br&gt;&lt;/span&gt;&lt;span style=&quot;&quot;&gt;int &lt;/span&gt;distance = &lt;span style=&quot;&quot;&gt;0&lt;/span&gt;&lt;span style=&quot;&quot;&gt;;&lt;/span&gt;&lt;/div&gt;&lt;/div&gt;&lt;/div&gt;&lt;/div&gt;&lt;/div&gt;&lt;/div&gt;&lt;/div&gt;&lt;/div&gt;" style="rounded=0;whiteSpace=wrap;html=1;labelBackgroundColor=none;fontColor=#FFFFFF;fontFamily=Verdana;" vertex="1" parent="1"><mxGeometry x="-945" y="535" width="230" height="100" as="geometry"/></mxCell><mxCell id="52" style="edgeStyle=orthogonalEdgeStyle;rounded=0;orthogonalLoop=1;jettySize=auto;html=1;entryX=0.5;entryY=0;entryDx=0;entryDy=0;fontColor=#FFFFFF;" edge="1" parent="1" source="54" target="56"><mxGeometry relative="1" as="geometry"/></mxCell><mxCell id="53" style="edgeStyle=orthogonalEdgeStyle;rounded=0;orthogonalLoop=1;jettySize=auto;html=1;entryX=0.5;entryY=0;entryDx=0;entryDy=0;fontColor=#FFFFFF;" edge="1" parent="1" source="54" target="58"><mxGeometry relative="1" as="geometry"><Array as="points"><mxPoint x="-620" y="705"/><mxPoint x="-620" y="980"/></Array></mxGeometry></mxCell><mxCell id="54" value="&lt;div style=&quot;&quot;&gt;&lt;div&gt;for (Vertex vertex : vertexList)&lt;/div&gt;&lt;/div&gt;" style="shape=hexagon;perimeter=hexagonPerimeter2;whiteSpace=wrap;html=1;fixedSize=1;labelBackgroundColor=none;fontColor=#FFFFFF;fontFamily=Verdana;" vertex="1" parent="1"><mxGeometry x="-945" y="660" width="230" height="90" as="geometry"/></mxCell><mxCell id="55" style="edgeStyle=orthogonalEdgeStyle;rounded=0;orthogonalLoop=1;jettySize=auto;html=1;entryX=0;entryY=0.5;entryDx=0;entryDy=0;exitX=0;exitY=0.5;exitDx=0;exitDy=0;fontColor=#FFFFFF;" edge="1" parent="1" source="56" target="54"><mxGeometry relative="1" as="geometry"/></mxCell><mxCell id="56" value="&lt;div style=&quot;&quot;&gt;&lt;div&gt;&lt;div style=&quot;&quot;&gt;&lt;div&gt;&lt;div style=&quot;&quot;&gt;&lt;div&gt;&lt;div style=&quot;&quot;&gt;&lt;div&gt;result += vertex.name + &lt;span style=&quot;&quot;&gt;&quot;(&quot;&lt;/span&gt;+vertex.getDistance()+&lt;span style=&quot;&quot;&gt;&quot;) -&amp;gt; &quot;&lt;/span&gt;&lt;span style=&quot;&quot;&gt;;&lt;/span&gt;&lt;/div&gt;&lt;div&gt;&lt;span style=&quot;&quot;&gt;&lt;br&gt;&lt;/span&gt;distance=vertex.getDistance()&lt;span style=&quot;&quot;&gt;;&lt;/span&gt;&lt;/div&gt;&lt;/div&gt;&lt;/div&gt;&lt;/div&gt;&lt;/div&gt;&lt;/div&gt;&lt;/div&gt;&lt;/div&gt;" style="rounded=0;whiteSpace=wrap;html=1;labelBackgroundColor=none;fontColor=#FFFFFF;fontFamily=Verdana;" vertex="1" parent="1"><mxGeometry x="-990" y="790" width="320" height="130" as="geometry"/></mxCell><mxCell id="57" style="edgeStyle=orthogonalEdgeStyle;rounded=0;orthogonalLoop=1;jettySize=auto;html=1;entryX=0.5;entryY=0;entryDx=0;entryDy=0;fontColor=#FFFFFF;" edge="1" parent="1" source="58" target="42"><mxGeometry relative="1" as="geometry"/></mxCell><mxCell id="58" value="Виведення:&lt;br&gt;результати" style="shape=parallelogram;perimeter=parallelogramPerimeter;whiteSpace=wrap;html=1;fixedSize=1;labelBackgroundColor=none;fontColor=#FFFFFF;fontFamily=Verdana;" vertex="1" parent="1"><mxGeometry x="-965" y="1020" width="270" height="90" as="geometry"/></mxCell><mxCell id="59" value="Так" style="text;html=1;align=center;verticalAlign=middle;resizable=0;points=[];autosize=1;strokeColor=none;fillColor=none;fontColor=#FFFFFF;" vertex="1" parent="1"><mxGeometry x="-385" y="740" width="40" height="30" as="geometry"/></mxCell><mxCell id="60" value="Так" style="text;html=1;align=center;verticalAlign=middle;resizable=0;points=[];autosize=1;strokeColor=none;fillColor=none;fontColor=#FFFFFF;" vertex="1" parent="1"><mxGeometry x="-830" y="750" width="40" height="30" as="geometry"/></mxCell><mxCell id="61" value="Ні" style="text;html=1;align=center;verticalAlign=middle;resizable=0;points=[];autosize=1;strokeColor=none;fillColor=none;fontColor=#FFFFFF;" vertex="1" parent="1"><mxGeometry x="-715" y="670" width="30" height="30" as="geometry"/></mxCell><mxCell id="62" value="Ні" style="text;html=1;align=center;verticalAlign=middle;resizable=0;points=[];autosize=1;strokeColor=none;fillColor=none;fontColor=#FFFFFF;" vertex="1" parent="1"><mxGeometry x="-510" y="670" width="30" height="30" as="geometry"/></mxCell></root></mxGraphModel></diagram></mxfile>